<svg xmlns="http://www.w3.org/2000/svg" width="26.566" height="26.56" viewBox="0 0 26.566 26.56">
<defs>  
        <linearGradient id="logo-gradient" x1="50%" y1="0%" x2="50%" y2="100%" > 
            
            <stop offset="0%" stop-color="#7A5FFF">
                <animate attributeName="stop-color" values="#7A5FFF; #01FF89; #7A5FFF" dur="4s" repeatCount="indefinite"></animate>
            </stop>

            <stop offset="100%" stop-color="#01FF89">
                <animate attributeName="stop-color" values="#01FF89; #7A5FFF; #01FF89" dur="4s" repeatCount="indefinite"></animate>
            </stop>

        </linearGradient> 

    </defs>
  
    <g>
  <path id="instagram" d="M13.211,38.3a6.81,6.81,0,1,0,6.81,6.81A6.8,6.8,0,0,0,13.211,38.3Zm0,11.237A4.427,4.427,0,1,1,17.638,45.1,4.435,4.435,0,0,1,13.211,49.532Zm8.676-11.515A1.588,1.588,0,1,1,20.3,36.428,1.585,1.585,0,0,1,21.887,38.017Zm4.51,1.612a7.86,7.86,0,0,0-2.145-5.565,7.912,7.912,0,0,0-5.565-2.145c-2.193-.124-8.765-.124-10.958,0a7.9,7.9,0,0,0-5.565,2.139A7.886,7.886,0,0,0,.018,39.623c-.124,2.193-.124,8.765,0,10.958a7.86,7.86,0,0,0,2.145,5.565,7.922,7.922,0,0,0,5.565,2.145c2.193.124,8.765.124,10.958,0a7.86,7.86,0,0,0,5.565-2.145A7.912,7.912,0,0,0,26.4,50.581C26.522,48.388,26.522,41.822,26.4,39.629ZM23.564,52.934a4.482,4.482,0,0,1-2.525,2.525c-1.748.693-5.9.533-7.829.533s-6.087.154-7.829-.533a4.482,4.482,0,0,1-2.525-2.525c-.693-1.748-.533-5.9-.533-7.829s-.154-6.087.533-7.829a4.482,4.482,0,0,1,2.525-2.525c1.748-.693,5.9-.533,7.829-.533s6.087-.154,7.829.533a4.482,4.482,0,0,1,2.525,2.525c.693,1.748.533,5.9.533,7.829S24.258,51.191,23.564,52.934Z" transform="translate(0.075 -31.825)" fill="url('#logo-gradient')"/>
  </g>
</svg>
