<svg xmlns="http://www.w3.org/2000/svg" viewBox="0 0 45.76 45.76"><defs><style>.cls-1{fill:#1a001d;}.cls-2,.cls-3{fill:none;stroke:#1a001d;stroke-miterlimit:10;}.cls-3{stroke-width:0.5px;}</style></defs><g id="Layer_2" data-name="Layer 2"><g id="Layer_1-2" data-name="Layer 1"><path class="cls-1" d="M25.19,16.54V16.2h5.52v.34c-2.17.06-2.36.43-2.36,4v9H27.7L18.76,19c-.36-.41-.66-.79-.92-1.12v7.29c0,3.61.19,4,2.73,4v.34H15.05v-.34c2.21-.06,2.32-.43,2.32-4V17.36a2.1,2.1,0,0,0-1.62-.82h-.7V16.2H19A5.15,5.15,0,0,1,22.9,18l5,5.87V20.58C27.88,17,27.77,16.6,25.19,16.54Z"/><circle class="cls-2" cx="22.88" cy="22.88" r="22.38" transform="translate(-7.25 11.09) rotate(-23.63)"/><line class="cls-3" x1="23.47" y1="45.25" x2="5.94" y2="27.19"/><line class="cls-3" x1="35.09" y1="35.4" x2="41.94" y2="11.16"/><line class="cls-3" x1="22.25" y1="0.51" x2="39.83" y2="18.57"/><line class="cls-3" x1="3.18" y1="12.27" x2="27.62" y2="6.05"/><line class="cls-3" x1="3.84" y1="34.63" x2="10.68" y2="10.36"/><line class="cls-3" x1="18.14" y1="39.71" x2="42.55" y2="33.55"/></g></g></svg>