<?xml version="1.0" encoding="utf-8"?>
<!-- Generator: Adobe Illustrator 25.3.1, SVG Export Plug-In . SVG Version: 6.00 Build 0)  -->
<svg version="1.1" id="Layer_1" xmlns="http://www.w3.org/2000/svg" xmlns:xlink="http://www.w3.org/1999/xlink" x="0px" y="0px"
	 viewBox="0 0 45.8 45.8" style="enable-background:new 0 0 45.8 45.8;" xml:space="preserve">
<style type="text/css">
	.st0{fill:#9A7658;}
	.st1{fill:none;stroke:#9A7658;stroke-miterlimit:10;}
	.st2{fill:none;stroke:#9A7658;stroke-width:0.5;stroke-miterlimit:10;}
</style>
<g id="Layer_2_1_">
	<g id="Layer_1-2">
		<path class="st0" d="M25.2,16.5v-0.3h5.5v0.3c-2.2,0.1-2.4,0.4-2.4,4v9h-0.6L18.8,19c-0.4-0.4-0.7-0.8-0.9-1.1v7.3
			c0,3.6,0.2,4,2.7,4v0.3h-5.5v-0.3c2.2-0.1,2.3-0.4,2.3-4v-7.8c-0.4-0.5-1-0.8-1.6-0.8h-0.7v-0.3H19c1.5,0,2.9,0.7,3.9,1.8l5,5.9
			v-3.3C27.9,17,27.8,16.6,25.2,16.5z"/>
		<g>
			<circle class="st1" cx="22.9" cy="22.9" r="22.4"/>
			<line class="st2" x1="23.5" y1="45.2" x2="5.9" y2="27.2"/>
			<line class="st2" x1="35.1" y1="35.4" x2="41.9" y2="11.2"/>
			<line class="st2" x1="22.2" y1="0.5" x2="39.8" y2="18.6"/>
			<line class="st2" x1="3.2" y1="12.3" x2="27.6" y2="6"/>
			<line class="st2" x1="3.8" y1="34.6" x2="10.7" y2="10.4"/>
			<line class="st2" x1="18.1" y1="39.7" x2="42.5" y2="33.5"/>
		</g>
	</g>
</g>
</svg>
