<svg xmlns="http://www.w3.org/2000/svg" width="176" height="25.7" viewBox="0 0 176 25.7">
  <g id="Layer_2" data-name="Layer 2" transform="translate(0 -0.034)">
    <g id="Layer_1" data-name="Layer 1" transform="translate(0 0.034)">
      <path id="Path_3" data-name="Path 3" d="M17.064,2.932V2.36h9.287v.572c-3.649.092-3.966.706-3.966,6.8V24.844h-1.1L6.232,7.088c-.586-.7-1.1-1.327-1.538-1.891v12.28c0,6.076.311,6.7,4.594,6.8v.565H0V24.28c3.712-.1,3.9-.706,3.9-6.8V4.315A3.529,3.529,0,0,0,1.164,2.9H0V2.36H6.606a8.666,8.666,0,0,1,6.6,3.056L21.6,15.3V9.728C21.6,3.651,21.412,3.023,17.064,2.932Z" transform="translate(0 -0.718)" fill="#9a7658"/>
      <path id="Path_4" data-name="Path 4" d="M37,23.75c3.211-.1,2.957-.191,2.957-7.057,0-7.34.5-7.431-3.148-7.495V8.761l4.728-.2a4.234,4.234,0,0,1,4.4,4.234v3.917c.247,6.86-.254,6.951,2.957,7.057v.409H37Zm2.23-20.466a3.472,3.472,0,0,1,6.93,0,3.472,3.472,0,0,1-6.93,0Z" transform="translate(-10.832 -0.034)" fill="#9a7658"/>
      <path id="Path_5" data-name="Path 5" d="M68.968,28.1c-2.865,0-4.058-1.411-4.594-3.084a4.361,4.361,0,0,1-4.39,3.056c-2.555,0-4.82-1.666-4.82-4.093a3.881,3.881,0,0,1,2.611-4c2.117-.939,4.284-.656,6.239-2.011v-1.51c0-2.519-.409-3.811-2.71-3.811A3.712,3.712,0,0,0,57.592,16.8h-.381c-.318-3.275,2.117-5.829,6.394-5.829,4.566,0,6.3,2.117,6.3,5.321,0,4.157-1.136,9.64,1.164,9.64.755,0,1.411-.289,1.411-3.056h.473C73.1,26.517,71.742,28.1,68.968,28.1Zm-6.549-2.011c1.673,0,1.609-1.729,1.609-4.185V18.627c-1.546,1.037-3.338,1.447-3.338,4.785,0,1.821.755,2.675,1.729,2.675Z" transform="translate(-16.229 -3.252)" fill="#9a7658"/>
      <path id="Path_6" data-name="Path 6" d="M113.257,16.05l.593.064-.529,9.824H91.81v-.565c3.373-.1,3.155-.565,3.155-6.8V10.807c0-6.239.219-6.711-3.155-6.831V3.46h12.562V4c-3.366.12-3.148.593-3.148,6.831V25.4h2.011C108.246,25.4,112.53,19.833,113.257,16.05Z" transform="translate(-27.018 -1.042)" fill="#9a7658"/>
      <path id="Path_7" data-name="Path 7" d="M141.878,23.185l.473.12c-.628,3.056-3.493,5.857-7.869,5.857-5.857,0-8.532-4.312-8.532-8.56s2.893-8.532,8.779-8.532c6.013,0,7.558,4.975,7.276,8H131.737c0,3.719,1.891,6.838,5.138,6.838A4.744,4.744,0,0,0,141.878,23.185ZM131.737,19.4h4.693c.219-4.75-.191-6.831-1.856-6.831s-2.738,1.609-2.837,6.831Z" transform="translate(-37.064 -3.576)" fill="#9a7658"/>
      <path id="Path_8" data-name="Path 8" d="M159.1,12.049c2.611,0,3.529,1.228,4.5,1.228a1.129,1.129,0,0,0,1.164-.917l.106-.36h.381v6.041h-.381l-.219-.628c-1.256-3.62-3.529-4.813-5.476-4.813-1.482,0-2.773.755-2.773,2.265,0,4.531,9.986.847,9.986,8.751,0,3.811-3.373,5.54-6.584,5.54-2.929,0-4.058-1.32-5.321-1.32a1.334,1.334,0,0,0-1.291,1.009l-.092.409h-.536V22.12h.381l.155.755c.628,2.964,3.119,5.646,6.422,5.646,2.174,0,3.056-.706,3.056-2.117,0-4.848-9.824-1.037-9.824-9.174C152.765,14.223,155.157,12.049,159.1,12.049Z" transform="translate(-44.895 -3.555)" fill="#9a7658"/>
      <path id="Path_9" data-name="Path 9" d="M191.088,23.185l.473.12a7.706,7.706,0,0,1-7.869,5.857c-5.857,0-8.532-4.312-8.532-8.56s2.893-8.532,8.779-8.532c6.013,0,7.558,4.975,7.276,8H180.954c0,3.719,1.884,6.838,5.131,6.838A4.744,4.744,0,0,0,191.088,23.185ZM180.954,19.4h4.679c.226-4.75-.191-6.831-1.856-6.831S181.046,14.18,180.954,19.4Z" transform="translate(-51.546 -3.576)" fill="#9a7658"/>
      <path id="Path_10" data-name="Path 10" d="M239.118,7.7a3.4,3.4,0,0,0,3.465-3.3,3.465,3.465,0,0,0-6.923,0A3.416,3.416,0,0,0,239.118,7.7Z" transform="translate(-69.35 -0.345)" fill="#9a7658"/>
      <path id="Path_11" data-name="Path 11" d="M235.183,25.291h0c-3.211-.092-2.71-.191-2.957-7.057V14.19a4.051,4.051,0,0,0-4.234-4.051l-4.9.2v.438c3.656.064,3.148.155,3.148,7.495,0,5.949-.769,6.683-3.063,6.838-2.668-.2-3.529-1.179-3.529-7.121V10.661c0-.656.064-2,.162-3.43a4.291,4.291,0,0,0-4.467-4.573l-5.279.24v.381c4.312.127,3.776-.409,3.776,7.4v.91c-.663-1.32-2.117-2.265-4.594-2.265-5.166,0-8.031,4.065-8.031,8.751,0,4.855,2.773,8.25,7.212,8.25a5.646,5.646,0,0,0,5.568-3.395c3.155,5.646,9.88,2.279,21.172,2.781h.049ZM210.6,24.818c-2.456,0-3.592-3.529-3.592-7.205,0-4.234,1.164-7.34,3.43-7.34,2.519,0,3.656,2.675,3.656,7.241,0,4.693-1.291,7.3-3.493,7.3Z" transform="translate(-59.212 -0.805)" fill="#9a7658"/>
    </g>
  </g>
</svg>
